<svg xmlns="http://www.w3.org/2000/svg" xmlns:xlink="http://www.w3.org/1999/xlink" width="128" height="128" viewBox="0 0 128 128"><linearGradient id="a" x1="29.185" x2="445.185" y1="204" y2="204" gradientTransform="matrix(0.173077 0 0 0.238095 22.9487 60.000031)" gradientUnits="userSpaceOnUse"><stop offset="0" stop-color="#3d3846"/><stop offset=".045" stop-color="#9a9996"/><stop offset=".091" stop-color="#5e5c64"/><stop offset=".909" stop-color="#5e5c64"/><stop offset=".953" stop-color="#9a9996"/><stop offset="1" stop-color="#3d3846"/></linearGradient><linearGradient id="b" x1="-45.92" x2="40.074" y1="350.377" y2="421.082" gradientTransform="matrix(1.125 0 0 1 57.160431 -350.377197)" gradientUnits="userSpaceOnUse"><stop offset="0" stop-color="#deddda"/><stop offset=".339" stop-color="#77767b"/><stop offset=".72" stop-color="#c0bfbc"/><stop offset="1" stop-color="#77767b"/></linearGradient><filter id="c" width="100%" height="100%" x="0%" y="0%"><feColorMatrix in="SourceGraphic" type="matrix" values="0 0 0 0 1 0 0 0 0 1 0 0 0 0 1 0 0 0 1 0"/></filter><mask id="d"><g filter="url(#c)"><rect width="128" height="128" fill-opacity=".5"/></g></mask><clipPath id="e"><rect width="192" height="152"/></clipPath><clipPath id="f"><path d="m 66 22 h 20 v 20 h -20 z m 0 0"/></clipPath><clipPath id="g"><path d="m 52 22 h 24 c 5.523438 0 10 4.476562 10 10 s -4.476562 10 -10 10 h -24 c -5.523438 0 -10 -4.476562 -10 -10 s 4.476562 -10 10 -10 z m 0 0"/></clipPath><mask id="h"><g filter="url(#c)"><rect width="128" height="128" fill-opacity=".2"/></g></mask><clipPath id="i"><rect width="192" height="152"/></clipPath><mask id="j"><g filter="url(#c)"><rect width="128" height="128" fill-opacity=".2"/></g></mask><clipPath id="k"><rect width="192" height="152"/></clipPath><clipPath id="l"><path d="m 42 48 h 20 v 20 h -20 z m 0 0"/></clipPath><clipPath id="m"><path d="m 76 48 h -24 c -5.523438 0 -10 4.476562 -10 10 s 4.476562 10 10 10 h 24 c 5.523438 0 10 -4.476562 10 -10 s -4.476562 -10 -10 -10 z m 0 0"/></clipPath><clipPath id="n"><path d="m 66 74 h 20 v 20 h -20 z m 0 0"/></clipPath><clipPath id="o"><path d="m 52 74 h 24 c 5.523438 0 10 4.476562 10 10 s -4.476562 10 -10 10 h -24 c -5.523438 0 -10 -4.476562 -10 -10 s 4.476562 -10 10 -10 z m 0 0"/></clipPath><mask id="p"><g filter="url(#c)"><rect width="128" height="128" fill-opacity=".2"/></g></mask><clipPath id="q"><rect width="192" height="152"/></clipPath><mask id="r"><g filter="url(#c)"><rect width="128" height="128" fill-opacity=".5"/></g></mask><clipPath id="s"><rect width="192" height="152"/></clipPath><path fill="url(#a)" d="m 36 40 h 56 c 4.417969 0 8 3.582031 8 8 v 64 c 0 4.417969 -3.582031 8 -8 8 h -56 c -4.417969 0 -8 -3.582031 -8 -8 v -64 c 0 -4.417969 3.582031 -8 8 -8 z m 0 0"/><path fill="url(#b)" d="m 36 8 h 56 c 4.417969 0 8 3.582031 8 8 v 84 c 0 4.417969 -3.582031 8 -8 8 h -56 c -4.417969 0 -8 -3.582031 -8 -8 v -84 c 0 -4.417969 3.582031 -8 8 -8 z m 0 0"/><path fill="#3d3846" d="m 36 12 h 56 c 2.210938 0 4 1.789062 4 4 v 84 c 0 2.210938 -1.789062 4 -4 4 h -56 c -2.210938 0 -4 -1.789062 -4 -4 v -84 c 0 -2.210938 1.789062 -4 4 -4 z m 0 0"/><path fill="#77767b" d="m 38 8 h 4 v 4 h -4 z m 0 0"/><path fill="#77767b" d="m 38 104 h 4 v 4 h -4 z m 0 0"/><path fill="#3d3846" d="m 38 120 h 4 v -12 h -4 z m 0 0"/><path fill="#77767b" d="m 86 8 h 4 v 4 h -4 z m 0 0"/><path d="m 61.5 111 c -1.386719 0 -2.5 1.113281 -2.5 2.5 s 1.113281 2.5 2.5 2.5 h 5 c 1.386719 0 2.5 -1.113281 2.5 -2.5 s -1.113281 -2.5 -2.5 -2.5 z m -15 1 c -0.828125 0 -1.5 0.671875 -1.5 1.5 s 0.671875 1.5 1.5 1.5 s 1.5 -0.671875 1.5 -1.5 s -0.671875 -1.5 -1.5 -1.5 z m 4 0 c -0.828125 0 -1.5 0.671875 -1.5 1.5 s 0.671875 1.5 1.5 1.5 s 1.5 -0.671875 1.5 -1.5 s -0.671875 -1.5 -1.5 -1.5 z m 4 0 c -0.828125 0 -1.5 0.671875 -1.5 1.5 s 0.671875 1.5 1.5 1.5 s 1.5 -0.671875 1.5 -1.5 s -0.671875 -1.5 -1.5 -1.5 z m 19 0 c -0.828125 0 -1.5 0.671875 -1.5 1.5 s 0.671875 1.5 1.5 1.5 s 1.5 -0.671875 1.5 -1.5 s -0.671875 -1.5 -1.5 -1.5 z m 4 0 c -0.828125 0 -1.5 0.671875 -1.5 1.5 s 0.671875 1.5 1.5 1.5 s 1.5 -0.671875 1.5 -1.5 s -0.671875 -1.5 -1.5 -1.5 z m 4 0 c -0.828125 0 -1.5 0.671875 -1.5 1.5 s 0.671875 1.5 1.5 1.5 s 1.5 -0.671875 1.5 -1.5 s -0.671875 -1.5 -1.5 -1.5 z m 0 0"/><g clip-path="url(#e)" mask="url(#d)" transform="matrix(1 0 0 1 -8 -16)"><path fill="#a09fa0" d="m 55.914062 129 c -0.210937 0.597656 -0.777343 1 -1.414062 1 s -1.203125 -0.398438 -1.414062 -1 c -0.054688 0.160156 -0.085938 0.332031 -0.085938 0.5 c 0 0.828125 0.671875 1.5 1.5 1.5 s 1.5 -0.671875 1.5 -1.5 c 0 -0.171875 -0.027344 -0.339844 -0.085938 -0.5 z m 4 0 c -0.210937 0.597656 -0.777343 1 -1.414062 1 s -1.203125 -0.398438 -1.414062 -1 c -0.054688 0.160156 -0.085938 0.332031 -0.085938 0.5 c 0 0.828125 0.671875 1.5 1.5 1.5 s 1.5 -0.671875 1.5 -1.5 c 0 -0.171875 -0.027344 -0.339844 -0.085938 -0.5 z m 4 0 c -0.210937 0.597656 -0.777343 1 -1.414062 1 s -1.203125 -0.398438 -1.414062 -1 c -0.054688 0.160156 -0.085938 0.332031 -0.085938 0.5 c 0 0.828125 0.671875 1.5 1.5 1.5 s 1.5 -0.671875 1.5 -1.5 c 0 -0.171875 -0.027344 -0.339844 -0.085938 -0.5 z m 19 0 c -0.210937 0.597656 -0.777343 1 -1.414062 1 s -1.203125 -0.398438 -1.414062 -1 c -0.054688 0.160156 -0.085938 0.332031 -0.085938 0.5 c 0 0.828125 0.671875 1.5 1.5 1.5 s 1.5 -0.671875 1.5 -1.5 c 0 -0.171875 -0.027344 -0.339844 -0.085938 -0.5 z m 4 0 c -0.210937 0.597656 -0.777343 1 -1.414062 1 s -1.203125 -0.398438 -1.414062 -1 c -0.054688 0.160156 -0.085938 0.332031 -0.085938 0.5 c 0 0.828125 0.671875 1.5 1.5 1.5 s 1.5 -0.671875 1.5 -1.5 c 0 -0.171875 -0.027344 -0.339844 -0.085938 -0.5 z m 4 0 c -0.210937 0.597656 -0.777343 1 -1.414062 1 s -1.203125 -0.398438 -1.414062 -1 c -0.054688 0.160156 -0.085938 0.332031 -0.085938 0.5 c 0 0.828125 0.671875 1.5 1.5 1.5 s 1.5 -0.671875 1.5 -1.5 c 0 -0.171875 -0.027344 -0.339844 -0.085938 -0.5 z m -23.863281 0 c -0.03125 0.160156 -0.050781 0.328125 -0.050781 0.5 c 0 1.386719 1.113281 2.5 2.5 2.5 h 5 c 1.386719 0 2.5 -1.113281 2.5 -2.5 c 0 -0.171875 -0.019531 -0.339844 -0.050781 -0.5 c -0.230469 1.144531 -1.234375 2 -2.449219 2 h -5 c -1.214844 0 -2.21875 -0.855469 -2.449219 -2 z m 0 0"/></g><path fill="#3584e4" d="m 52 22 h 24 c 5.523438 0 10 4.476562 10 10 s -4.476562 10 -10 10 h -24 c -5.523438 0 -10 -4.476562 -10 -10 s 4.476562 -10 10 -10 z m 0 0"/><g clip-path="url(#f)"><g clip-path="url(#g)"><path fill="#deddda" d="m 76 20 c 5.539062 0 10 4.460938 10 10 v 4 c 0 5.539062 -4.460938 10 -10 10 s -10 -4.460938 -10 -10 v -4 c 0 -5.539062 4.460938 -10 10 -10 z m 0 0"/></g></g><g clip-path="url(#i)" mask="url(#h)" transform="matrix(1 0 0 1 -8 -16)"><path fill="#1e1c23" d="m 60 38 c -5.539062 0 -10 4.460938 -10 10 c 0 0.335938 0.015625 0.671875 0.050781 1 c 0.496094 -5.066406 4.746094 -9 9.949219 -9 h 24 c 5.203125 0 9.453125 3.933594 9.953125 9 c 0.03125 -0.328125 0.046875 -0.664062 0.046875 -1 c 0 -5.539062 -4.460938 -10 -10 -10 z m 0 0"/></g><path fill="#fff" d="m 66 30 c 0 5.523438 4.476562 10 10 10 s 10 -4.476562 10 -10 s -4.476562 -10 -10 -10 s -10 4.476562 -10 10 z m 0 0"/><path fill="#c0bfbc" d="m 76 48 h -24 c -5.523438 0 -10 4.476562 -10 10 s 4.476562 10 10 10 h 24 c 5.523438 0 10 -4.476562 10 -10 s -4.476562 -10 -10 -10 z m 0 0"/><g clip-path="url(#k)" mask="url(#j)" transform="matrix(1 0 0 1 -8 -16)"><path d="m 60 64 c -5.539062 0 -10 4.460938 -10 10 c 0 0.335938 0.015625 0.671875 0.050781 1 c 0.496094 -5.066406 4.746094 -9 9.949219 -9 h 24 c 5.203125 0 9.453125 3.933594 9.953125 9 c 0.03125 -0.328125 0.046875 -0.664062 0.046875 -1 c 0 -5.539062 -4.460938 -10 -10 -10 z m 0 0"/></g><g clip-path="url(#l)"><g clip-path="url(#m)"><path fill="#deddda" d="m 52 46 c -5.539062 0 -10 4.460938 -10 10 v 4 c 0 5.539062 4.460938 10 10 10 s 10 -4.460938 10 -10 v -4 c 0 -5.539062 -4.460938 -10 -10 -10 z m 0 0"/></g></g><path fill="#fff" d="m 62 56 c 0 5.523438 -4.476562 10 -10 10 s -10 -4.476562 -10 -10 s 4.476562 -10 10 -10 s 10 4.476562 10 10 z m 0 0"/><path fill="#3584e4" d="m 52 74 h 24 c 5.523438 0 10 4.476562 10 10 s -4.476562 10 -10 10 h -24 c -5.523438 0 -10 -4.476562 -10 -10 s 4.476562 -10 10 -10 z m 0 0"/><g clip-path="url(#n)"><g clip-path="url(#o)"><path fill="#deddda" d="m 76 72 c 5.539062 0 10 4.460938 10 10 v 4 c 0 5.539062 -4.460938 10 -10 10 s -10 -4.460938 -10 -10 v -4 c 0 -5.539062 4.460938 -10 10 -10 z m 0 0"/></g></g><g clip-path="url(#q)" mask="url(#p)" transform="matrix(1 0 0 1 -8 -16)"><path d="m 60 90 c -5.539062 0 -10 4.460938 -10 10 c 0 0.335938 0.015625 0.671875 0.050781 1 c 0.496094 -5.066406 4.746094 -9 9.949219 -9 h 24 c 5.203125 0 9.453125 3.933594 9.953125 9 c 0.03125 -0.328125 0.046875 -0.664062 0.046875 -1 c 0 -5.539062 -4.460938 -10 -10 -10 z m 0 0"/></g><path fill="#fff" d="m 66 82 c 0 5.523438 4.476562 10 10 10 s 10 -4.476562 10 -10 s -4.476562 -10 -10 -10 s -10 4.476562 -10 10 z m 0 0"/><g clip-path="url(#s)" mask="url(#r)" transform="matrix(1 0 0 1 -8 -16)"><path d="m 44 28 c -2.214844 0 -4 1.785156 -4 4 v 2 c 0 -2.214844 1.785156 -4 4 -4 h 56 c 2.214844 0 4 1.785156 4 4 v -2 c 0 -2.214844 -1.785156 -4 -4 -4 z m 0 0"/></g><path fill="#5e5c64" d="m 86 104 h 4 v 4 h -4 z m 0 0"/><path fill="#3d3846" d="m 86 120 h 4 v -12 h -4 z m 0 0"/></svg>